<svg width="50" height="50" viewBox="0 0 50 50" fill="none" xmlns="http://www.w3.org/2000/svg">
<path d="M7.44974 22.9285C7.39559 23.0637 7.36801 23.208 7.36849 23.3535V26.9133C7.36849 27.5235 7.84523 28.0148 8.43773 28.0148H11.8925C12.4847 28.0148 12.9617 27.5235 12.9617 26.9133H14.2777C14.2777 28.2748 13.214 29.3708 11.8925 29.3708H8.43824C7.11674 29.3708 6.05273 28.2748 6.05273 26.9133V23.3523C6.05265 23.2099 6.06453 23.0677 6.08823 22.9273L7.44974 22.9285ZM11.8917 20.8945C13.2132 20.8945 14.277 21.9908 14.277 23.3523H12.9617C12.9617 22.742 12.4847 22.2505 11.8925 22.2505H6.30398C6.69473 21.4453 7.50174 20.8945 8.43824 20.8945H11.8917Z" fill="white"/>
<path d="M27.336 22.9252C27.2818 23.0603 27.254 23.2046 27.2543 23.3502C27.2543 23.9614 27.7318 24.4534 28.3245 24.4534H31.7818C33.104 24.4534 34.1687 25.5509 34.1687 26.9142C34.1687 28.2774 33.104 29.3752 31.7818 29.3752H26.2998V28.0174H31.7818C32.3743 28.0174 32.8517 27.5254 32.8517 26.9142C32.8517 26.3029 32.3743 25.8112 31.7818 25.8112H28.3248C27.0023 25.8112 25.9375 24.7137 25.9375 23.3502C25.9374 23.2078 25.9492 23.0656 25.9728 22.9252H27.336ZM33.8062 20.8887V22.2464H26.1885C26.5795 21.4402 27.3885 20.8887 28.3245 20.8887H33.8062Z" fill="white"/>
<path d="M42.4331 20.8887C43.1626 20.8887 43.7501 21.4944 43.7501 22.2464V29.3747H42.4331V26.4894H36.8356V25.1317H42.4331V22.2464H35.5186C35.5186 21.4944 36.1061 20.8887 36.8356 20.8887H42.4331ZM36.8356 22.9247V29.3747H35.5186V22.9247H36.8356Z" fill="white"/>
<path d="M16.9931 23.1428C16.9394 23.2729 16.9119 23.4123 16.9121 23.5531V26.9971C16.9118 27.1371 16.9392 27.2759 16.9927 27.4053C17.0461 27.5348 17.1246 27.6524 17.2237 27.7514C17.3227 27.8504 17.4404 27.9289 17.5698 27.9824C17.6993 28.0358 17.8381 28.0631 17.9781 28.0628H21.4216C21.5617 28.0631 21.7004 28.0358 21.8299 27.9824C21.9594 27.9289 22.077 27.8504 22.176 27.7514C22.2751 27.6524 22.3536 27.5348 22.4071 27.4053C22.4605 27.2759 22.4879 27.1371 22.4876 26.9971H23.7996C23.8003 27.3095 23.7393 27.6191 23.62 27.9079C23.5007 28.1967 23.3256 28.4591 23.1046 28.68C22.8837 28.901 22.6213 29.0761 22.3324 29.1953C22.0436 29.3145 21.7341 29.3755 21.4216 29.3748H17.9779C17.6654 29.3756 17.3558 29.3146 17.067 29.1954C16.7781 29.0762 16.5157 28.901 16.2947 28.6801C16.0737 28.4592 15.8985 28.1967 15.7792 27.9079C15.66 27.6191 15.5989 27.3095 15.5996 26.9971V23.5531C15.5996 23.4156 15.6114 23.2783 15.6349 23.1428H16.9931ZM21.4216 21.1748C21.7341 21.1741 22.0437 21.2352 22.3325 21.3544C22.6214 21.4737 22.8838 21.6489 23.1047 21.8699C23.3257 22.0908 23.5008 22.3533 23.6201 22.6421C23.7393 22.931 23.8003 23.2406 23.7996 23.5531H22.4876C22.4879 23.413 22.4605 23.2742 22.4071 23.1448C22.3536 23.0153 22.2751 22.8977 22.1761 22.7986C22.077 22.6996 21.9594 22.6211 21.8299 22.5676C21.7004 22.5141 21.5617 22.4868 21.4216 22.4871H15.8496C16.047 22.0919 16.3509 21.7597 16.7269 21.5279C17.1029 21.296 17.5361 21.1738 17.9779 21.1748H21.4216Z" fill="url(#paint0_linear_593_985)"/>
<path d="M23.6478 23.7146C23.5344 23.8702 23.4696 24.0559 23.4618 24.2483C23.4539 24.4406 23.5032 24.631 23.6035 24.7954C23.7038 24.9597 23.8506 25.0906 24.0253 25.1715C24.2 25.2524 24.3948 25.2797 24.585 25.2499C24.7753 25.2201 24.9524 25.1346 25.094 25.0042C25.2356 24.8737 25.3354 24.7042 25.3806 24.5171C25.4259 24.33 25.4147 24.1336 25.3484 23.9529C25.2821 23.7721 25.1636 23.6151 25.0081 23.5016C24.9048 23.4262 24.7877 23.3719 24.6634 23.3418C24.5391 23.3117 24.4101 23.3064 24.2838 23.3262C24.1575 23.3459 24.0363 23.3904 23.9272 23.4571C23.818 23.5237 23.7231 23.6113 23.6478 23.7146Z" fill="url(#paint1_radial_593_985)"/>
<path d="M23.6055 21.1981C23.5178 21.3182 23.4677 21.4616 23.4616 21.6102C23.4554 21.7587 23.4935 21.9058 23.5709 22.0328C23.6483 22.1597 23.7617 22.2608 23.8966 22.3234C24.0315 22.3859 24.182 22.407 24.3289 22.384C24.4758 22.361 24.6126 22.295 24.722 22.1943C24.8314 22.0935 24.9084 21.9626 24.9434 21.8181C24.9783 21.6735 24.9696 21.5219 24.9184 21.3823C24.8672 21.2427 24.7757 21.1214 24.6555 21.0338C24.4944 20.9165 24.2934 20.8679 24.0965 20.8987C23.8996 20.9295 23.723 21.0372 23.6055 21.1981Z" fill="url(#paint2_radial_593_985)"/>
<path d="M22.5023 22.7928C22.4483 22.8666 22.4174 22.9547 22.4135 23.0461C22.4096 23.1374 22.4329 23.2279 22.4804 23.306C22.5279 23.3841 22.5974 23.4464 22.6803 23.485C22.7632 23.5235 22.8557 23.5367 22.946 23.5227C23.0364 23.5087 23.1206 23.4682 23.1879 23.4064C23.2553 23.3446 23.3028 23.2642 23.3244 23.1753C23.3461 23.0865 23.3409 22.9933 23.3096 22.9074C23.2782 22.8215 23.2221 22.7468 23.1483 22.6928C23.0994 22.657 23.0438 22.6311 22.9848 22.6167C22.9258 22.6023 22.8646 22.5997 22.8046 22.609C22.7446 22.6182 22.687 22.6393 22.6352 22.6708C22.5833 22.7024 22.5382 22.7438 22.5023 22.7928Z" fill="url(#paint3_radial_593_985)"/>
<defs>
<linearGradient id="paint0_linear_593_985" x1="14.2669" y1="21.5223" x2="22.1929" y2="26.9971" gradientUnits="userSpaceOnUse">
<stop stop-color="#00B3E9"/>
<stop offset="1" stop-color="#8D267F"/>
</linearGradient>
<radialGradient id="paint1_radial_593_985" cx="0" cy="0" r="1" gradientUnits="userSpaceOnUse" gradientTransform="translate(26.0898 25.0941) scale(1.90625)">
<stop stop-color="#00B3E9"/>
<stop offset="1" stop-color="#8D267F"/>
</radialGradient>
<radialGradient id="paint2_radial_593_985" cx="0" cy="0" r="1" gradientUnits="userSpaceOnUse" gradientTransform="translate(26.1908 20.8303) scale(2.924 2.924)">
<stop stop-color="#00B3E9"/>
<stop offset="1" stop-color="#8D267F"/>
</radialGradient>
<radialGradient id="paint3_radial_593_985" cx="0" cy="0" r="1" gradientUnits="userSpaceOnUse" gradientTransform="translate(22.4243 22.6903) scale(1.22575)">
<stop stop-color="#00B3E9"/>
<stop offset="1" stop-color="#8D267F"/>
</radialGradient>
</defs>
</svg>
