<svg width="50" height="50" viewBox="0 0 50 50" fill="none" xmlns="http://www.w3.org/2000/svg">
<path d="M7.65 22.9252C7.59575 23.0603 7.56808 23.2046 7.5685 23.3502V26.9144C7.5685 27.5254 8.046 28.0174 8.63875 28.0174H12.0942C12.687 28.0174 13.1645 27.5254 13.1645 26.9144H14.4815C14.4815 28.2779 13.4167 29.3752 12.0942 29.3752H8.63725C7.31475 29.3752 6.25 28.2779 6.25 26.9144V23.3502C6.24996 23.2078 6.26183 23.0656 6.2855 22.9252H7.65ZM12.0955 20.8887C13.418 20.8887 14.4827 21.9862 14.4827 23.3497H13.1645C13.1645 22.7384 12.687 22.2464 12.0942 22.2464H6.5015C6.89225 21.4402 7.7 20.8887 8.63725 20.8887H12.0955Z" fill="white"/>
<path d="M27.336 22.9252C27.2818 23.0603 27.254 23.2046 27.2543 23.3502C27.2543 23.9614 27.7318 24.4534 28.3245 24.4534H31.7818C33.104 24.4534 34.1687 25.5509 34.1687 26.9142C34.1687 28.2774 33.104 29.3752 31.7818 29.3752H26.2998V28.0174H31.7818C32.3743 28.0174 32.8517 27.5254 32.8517 26.9142C32.8517 26.3029 32.3743 25.8112 31.7818 25.8112H28.3248C27.0023 25.8112 25.9375 24.7137 25.9375 23.3502C25.9374 23.2078 25.9492 23.0656 25.9728 22.9252H27.336ZM33.8062 20.8887V22.2464H26.1885C26.5795 21.4402 27.3885 20.8887 28.3245 20.8887H33.8062Z" fill="white"/>
<path d="M42.4331 20.8887C43.1626 20.8887 43.7501 21.4944 43.7501 22.2464V29.3747H42.4331V26.4894H36.8356V25.1317H42.4331V22.2464H35.5186C35.5186 21.4944 36.1061 20.8887 36.8356 20.8887H42.4331ZM36.8356 22.9247V29.3747H35.5186V22.9247H36.8356Z" fill="white"/>
<path d="M24.0215 21.1641L22.294 28.1208H21.8063L21.2718 25.9671C21.2718 25.9671 21.1078 25.3056 20.4935 25.3056H19.8395C19.2255 25.3056 19.0613 25.9671 19.0613 25.9671L18.527 28.1208H18.0393L16.3118 21.1641H15.04L16.9318 28.7833C16.9318 28.7833 17.097 29.4461 17.71 29.4461H18.664C18.699 29.125 18.8398 28.8247 19.064 28.5923C19.064 28.5923 20.0253 27.5276 20.1665 26.4498C20.3073 27.5286 21.2695 28.5933 21.2695 28.5933C21.4938 28.8257 21.6345 29.126 21.6695 29.4471H22.6235C23.2375 29.4471 23.4018 28.7843 23.4018 28.7843L25.2935 21.1651L24.0215 21.1641Z" fill="url(#paint0_linear_593_1009)"/>
<path d="M19.0576 30.6807C19.1266 30.7646 19.2031 30.8422 19.2861 30.9124C19.3682 30.983 19.4565 31.0458 19.5501 31.1002C19.7345 31.2105 19.9457 31.2682 20.1606 31.2669C20.3741 31.2649 20.5826 31.1919 20.7679 31.0847C20.9539 30.9728 21.1244 30.8369 21.2751 30.6807C21.2394 30.7217 21.2031 30.7627 21.1664 30.8032L21.0496 30.9184C21.0076 30.9537 20.9669 30.9907 20.9231 31.0239C20.8794 31.0572 20.8354 31.0904 20.7874 31.1179C20.7639 31.1322 20.7406 31.1469 20.7166 31.1609L20.6416 31.1979C20.6173 31.2105 20.5922 31.2217 20.5666 31.2314L20.5279 31.2467L20.5086 31.2544L20.4886 31.2607L20.4086 31.2842C20.3816 31.2904 20.3541 31.2954 20.3269 31.3009C20.2995 31.3061 20.2719 31.3097 20.2441 31.3119C20.2301 31.3119 20.2164 31.3152 20.2024 31.3159H20.1606C20.049 31.3174 19.9378 31.3019 19.8309 31.2699C19.7247 31.2376 19.6232 31.1913 19.5291 31.1324C19.3426 31.0157 19.1822 30.862 19.0576 30.6807Z" fill="url(#paint1_linear_593_1009)"/>
<path d="M19.1909 29.4463C19.1747 29.5652 19.1709 29.6856 19.1796 29.8053C19.1874 29.9236 19.2119 30.0402 19.2524 30.1515C19.2927 30.2625 19.3531 30.365 19.4306 30.454C19.5103 30.543 19.6031 30.6194 19.7056 30.6805C19.5912 30.6358 19.4874 30.5677 19.4009 30.4805C19.3574 30.4364 19.3189 30.3877 19.2859 30.3353C19.2533 30.2826 19.226 30.2268 19.2044 30.1688C19.1624 30.0527 19.1406 29.9303 19.1399 29.8068C19.1374 29.6847 19.1546 29.5629 19.1909 29.4463Z" fill="url(#paint2_linear_593_1009)"/>
<defs>
<linearGradient id="paint0_linear_593_1009" x1="15.04" y1="25.3051" x2="25.2933" y2="25.3051" gradientUnits="userSpaceOnUse">
<stop stop-color="#023B4C"/>
<stop offset="1" stop-color="#19AEBF"/>
</linearGradient>
<linearGradient id="paint1_linear_593_1009" x1="19.0369" y1="30.9989" x2="21.2941" y2="30.9989" gradientUnits="userSpaceOnUse">
<stop stop-color="#023B4C"/>
<stop offset="1" stop-color="#19AEBF"/>
</linearGradient>
<linearGradient id="paint2_linear_593_1009" x1="19.1334" y1="30.0633" x2="19.7176" y2="30.0633" gradientUnits="userSpaceOnUse">
<stop stop-color="#023B4C"/>
<stop offset="1" stop-color="#19AEBF"/>
</linearGradient>
</defs>
</svg>
