<svg width="50" height="50" viewBox="0 0 50 50" fill="none" xmlns="http://www.w3.org/2000/svg">
<path d="M8.37509 22.9247C8.32104 23.0598 8.29345 23.2041 8.29384 23.3497V26.9139C8.29384 27.5249 8.77109 28.0169 9.36384 28.0169H12.8201C13.4128 28.0169 13.8901 27.5249 13.8901 26.9139H15.2071C15.2071 28.2774 14.1426 29.3747 12.8201 29.3747H9.36284C8.04034 29.3747 6.97559 28.2774 6.97559 26.9139V23.3497C6.97555 23.2073 6.98742 23.0651 7.01109 22.9247H8.37509ZM12.8201 20.8887C14.1426 20.8887 15.2071 21.9862 15.2071 23.3497H13.8901C13.8901 22.7384 13.4128 22.2464 12.8201 22.2464H7.22709C7.61809 21.4402 8.42559 20.8887 9.36284 20.8887H12.8201Z" fill="white"/>
<path d="M27.336 22.9252C27.2818 23.0603 27.254 23.2046 27.2543 23.3502C27.2543 23.9614 27.7318 24.4534 28.3245 24.4534H31.7818C33.104 24.4534 34.1687 25.5509 34.1687 26.9142C34.1687 28.2774 33.104 29.3752 31.7818 29.3752H26.2998V28.0174H31.7818C32.3743 28.0174 32.8517 27.5254 32.8517 26.9142C32.8517 26.3029 32.3743 25.8112 31.7818 25.8112H28.3248C27.0023 25.8112 25.9375 24.7137 25.9375 23.3502C25.9374 23.2078 25.9492 23.0656 25.9728 22.9252H27.336ZM33.8062 20.8887V22.2464H26.1885C26.5795 21.4402 27.3885 20.8887 28.3245 20.8887H33.8062Z" fill="white"/>
<path d="M42.4331 20.8887C43.1626 20.8887 43.7501 21.4944 43.7501 22.2464V29.3747H42.4331V26.4894H36.8356V25.1317H42.4331V22.2464H35.5186C35.5186 21.4944 36.1061 20.8887 36.8356 20.8887H42.4331ZM36.8356 22.9247V29.3747H35.5186V22.9247H36.8356Z" fill="white"/>
<path d="M19.3878 26.8889V29.2612H17.8193V25.5762L19.3878 26.8889Z" fill="url(#paint0_linear_593_1002)"/>
<path d="M22.2445 20.8887H17.291V22.2887L17.819 22.6434V24.5337L18.4073 25.0262L19.3878 25.8467H22.2445C23.365 25.8467 24.2673 24.7412 24.2673 23.3677C24.2673 21.9942 23.365 20.8887 22.2445 20.8887ZM22.2445 24.4789H19.3878V22.2564H22.2445C22.747 22.2564 23.1515 22.7522 23.1515 23.3679C23.1515 23.9837 22.747 24.4789 22.2445 24.4789Z" fill="url(#paint1_linear_593_1002)"/>
<defs>
<linearGradient id="paint0_linear_593_1002" x1="6.61584" y1="25.6049" x2="35.9041" y2="30.3464" gradientUnits="userSpaceOnUse">
<stop stop-color="#EE2D24"/>
<stop offset="1" stop-color="#F3AF1C"/>
</linearGradient>
<linearGradient id="paint1_linear_593_1002" x1="7.31477" y1="21.1712" x2="36.6033" y2="25.9127" gradientUnits="userSpaceOnUse">
<stop stop-color="#EE2D24"/>
<stop offset="1" stop-color="#F3AF1C"/>
</linearGradient>
</defs>
</svg>
