<svg width="50" height="50" viewBox="0 0 50 50" fill="none" xmlns="http://www.w3.org/2000/svg">
<path d="M7.65 22.9252C7.59575 23.0603 7.56808 23.2046 7.5685 23.3502V26.9144C7.5685 27.5254 8.046 28.0174 8.63875 28.0174H12.0942C12.687 28.0174 13.1645 27.5254 13.1645 26.9144H14.4815C14.4815 28.2779 13.4167 29.3752 12.0942 29.3752H8.63725C7.31475 29.3752 6.25 28.2779 6.25 26.9144V23.3502C6.24996 23.2078 6.26183 23.0656 6.2855 22.9252H7.65ZM12.0955 20.8887C13.418 20.8887 14.4827 21.9862 14.4827 23.3497H13.1645C13.1645 22.7384 12.687 22.2464 12.0942 22.2464H6.5015C6.89225 21.4402 7.7 20.8887 8.63725 20.8887H12.0955Z" fill="white"/>
<path d="M27.336 22.9252C27.2818 23.0603 27.254 23.2046 27.2543 23.3502C27.2543 23.9614 27.7318 24.4534 28.3245 24.4534H31.7818C33.104 24.4534 34.1687 25.5509 34.1687 26.9142C34.1687 28.2774 33.104 29.3752 31.7818 29.3752H26.2998V28.0174H31.7818C32.3743 28.0174 32.8517 27.5254 32.8517 26.9142C32.8517 26.3029 32.3743 25.8112 31.7818 25.8112H28.3248C27.0023 25.8112 25.9375 24.7137 25.9375 23.3502C25.9374 23.2078 25.9492 23.0656 25.9728 22.9252H27.336ZM33.8062 20.8887V22.2464H26.1885C26.5795 21.4402 27.3885 20.8887 28.3245 20.8887H33.8062Z" fill="white"/>
<path d="M42.4331 20.8887C43.1626 20.8887 43.7501 21.4944 43.7501 22.2464V29.3747H42.4331V26.4894H36.8356V25.1317H42.4331V22.2464H35.5186C35.5186 21.4944 36.1061 20.8887 36.8356 20.8887H42.4331ZM36.8356 22.9247V29.3747H35.5186V22.9247H36.8356Z" fill="white"/>
<path d="M18.2766 20.9424C17.9552 20.9417 17.6369 21.0044 17.3399 21.127C17.0429 21.2497 16.773 21.4297 16.5458 21.657C16.3186 21.8842 16.1385 22.154 16.0158 22.451C15.8932 22.748 15.8304 23.0663 15.8311 23.3876V29.3746H17.1811V23.3879C17.1807 23.1782 17.2406 22.9728 17.3536 22.7961C17.4666 22.6194 17.628 22.479 17.8186 22.3914L22.9231 27.4964V29.3746H24.2731V26.9369L18.2766 20.9424Z" fill="url(#paint0_linear_593_993)"/>
<path d="M24.2713 20.8887H22.4678V22.3274L22.9218 22.6922V24.6347L24.2718 25.9847V20.9424H24.207L24.2713 20.8912V20.8887Z" fill="url(#paint1_linear_593_993)"/>
<path d="M24.2713 20.8916V22.6926H24.271V20.9429H24.207L24.2713 20.8916Z" fill="url(#paint2_linear_593_993)"/>
<defs>
<linearGradient id="paint0_linear_593_993" x1="14.7516" y1="22.9969" x2="26.4011" y2="33.9349" gradientUnits="userSpaceOnUse">
<stop stop-color="#DD1F26"/>
<stop offset="1" stop-color="#333333"/>
</linearGradient>
<linearGradient id="paint1_linear_593_993" x1="22.6388" y1="23.0702" x2="24.358" y2="23.4557" gradientUnits="userSpaceOnUse">
<stop stop-color="#DD1F26"/>
<stop offset="1" stop-color="#333333"/>
</linearGradient>
<linearGradient id="paint2_linear_593_993" x1="22.9895" y1="21.5049" x2="24.7088" y2="21.8901" gradientUnits="userSpaceOnUse">
<stop stop-color="#DD1F26"/>
<stop offset="1" stop-color="#333333"/>
</linearGradient>
</defs>
</svg>
